<svg width="284" height="52" viewBox="0 0 284 52" fill="none" xmlns="http://www.w3.org/2000/svg">
<g clip-path="url(#clip0_187_1972)">
<path d="M120.188 22.918C119.631 22.918 119.085 22.9784 118.558 23.0888C117.856 15.9867 111.846 10.418 104.562 10.418C103.7 10.418 103 11.118 103 11.9805V36.9805C103 37.843 103.7 38.543 104.562 38.543H120.188C124.498 38.543 128 35.041 128 30.7305C128 26.4243 124.498 22.918 120.188 22.918Z" fill="white"/>
<path d="M96.75 15.1055V36.9805C96.75 37.843 97.45 38.543 98.3125 38.543C99.175 38.543 99.875 37.843 99.875 36.9805V15.1055C99.875 14.243 99.175 13.543 98.3125 13.543C97.45 13.543 96.75 14.243 96.75 15.1055Z" fill="white"/>
<path d="M90.5 21.3555V36.9803C90.5 37.8428 91.2 38.5428 92.0625 38.5428C92.925 38.5428 93.625 37.8428 93.625 36.9803V21.3555C93.625 20.493 92.925 19.793 92.0625 19.793C91.2 19.793 90.5 20.493 90.5 21.3555Z" fill="white"/>
<path d="M84.25 36.9803C84.25 37.8428 84.95 38.5428 85.8125 38.5428C86.675 38.5428 87.375 37.8428 87.375 36.9803V21.3555C87.375 20.493 86.675 19.793 85.8125 19.793C84.95 19.793 84.25 20.493 84.25 21.3555V36.9803Z" fill="white"/>
<path d="M79.5625 38.543C80.425 38.543 81.125 37.843 81.125 36.9805V27.6055C81.125 26.743 80.425 26.043 79.5625 26.043C78.7 26.043 78 26.743 78 27.6055V36.9805C78 37.843 78.7 38.543 79.5625 38.543Z" fill="white"/>
</g>
<path d="M192.817 34.8274C186.084 30.392 177.619 29.3149 167.659 31.6358C165.659 32.1004 166.334 35.1358 168.367 34.6795C184.392 30.9545 190.34 37.6962 191.957 37.6962C193.503 37.6941 194.109 35.6795 192.817 34.8274Z" fill="white"/>
<path d="M166.952 26.8683C175.912 24.7475 186.085 25.9808 193.502 30.0808C195.306 31.0787 196.818 28.3433 195.014 27.3475C186.941 22.885 175.916 21.5391 166.233 23.8287C164.224 24.3016 164.935 27.3412 166.952 26.8683Z" fill="white"/>
<path d="M165.769 18.738C175.206 15.8505 188.446 17.4339 195.913 22.3422C197.627 23.4693 199.359 20.8672 197.629 19.7318C189.338 14.2797 175.25 12.5693 164.854 15.7484C162.871 16.3547 163.804 19.3443 165.769 18.738Z" fill="white"/>
<path d="M181 50C194.785 50 206 38.7854 206 25C206 11.2146 194.785 0 181 0C167.215 0 156 11.2146 156 25C156 38.7854 167.215 50 181 50ZM181 3.125C193.062 3.125 202.875 12.9375 202.875 25C202.875 37.0625 193.062 46.875 181 46.875C168.938 46.875 159.125 37.0625 159.125 25C159.125 12.9375 168.938 3.125 181 3.125Z" fill="white"/>
<path d="M259 14.3047C252.808 14.3047 247.77 19.3427 247.77 25.5352C247.77 28.5027 248.927 31.2046 250.813 33.2145C251.101 32.1849 251.582 31.2103 252.242 30.3458C251.272 28.9876 250.699 27.3275 250.699 25.5352C250.699 20.9581 254.423 17.2344 259 17.2344C263.577 17.2344 267.301 20.9581 267.301 25.5352C267.301 27.3275 266.728 28.9876 265.758 30.3459C266.418 31.2104 266.899 32.1849 267.187 33.2146C269.073 31.2046 270.23 28.5027 270.23 25.5352C270.23 19.3427 265.192 14.3047 259 14.3047Z" fill="white"/>
<path d="M259 8.44531C249.577 8.44531 241.91 16.1118 241.91 25.5352C241.91 32.1339 245.67 37.8705 251.159 40.7171L250.62 36.9419C247.117 34.3616 244.84 30.2096 244.84 25.5352C244.84 17.7272 251.192 11.375 259 11.375C266.808 11.375 273.16 17.7272 273.16 25.5352C273.16 30.2096 270.883 34.3616 267.38 36.9419L266.841 40.7171C272.33 37.8705 276.09 32.1339 276.09 25.5352C276.09 16.1118 268.423 8.44531 259 8.44531Z" fill="white"/>
<path d="M273.746 2H244.254C238.6 2 234 6.5999 234 12.2539V41.7461C234 47.4001 238.6 52 244.254 52H273.746C279.4 52 284 47.4001 284 41.7461V12.2539C284 6.5999 279.4 2 273.746 2ZM281.07 41.7461C281.07 45.7847 277.785 49.0703 273.746 49.0703H244.254C240.215 49.0703 236.93 45.7847 236.93 41.7461V12.2539C236.93 8.21533 240.215 4.92969 244.254 4.92969H273.746C277.785 4.92969 281.07 8.21533 281.07 12.2539V41.7461Z" fill="white"/>
<path d="M259 20.1641C256.577 20.1641 254.605 22.1354 254.605 24.5586C254.605 26.9817 256.577 28.9531 259 28.9531C261.423 28.9531 263.395 26.9817 263.395 24.5586C263.395 22.1354 261.423 20.1641 259 20.1641ZM259 26.0234C258.192 26.0234 257.535 25.3663 257.535 24.5586C257.535 23.7509 258.192 23.0938 259 23.0938C259.808 23.0938 260.465 23.7509 260.465 24.5586C260.465 25.3663 259.808 26.0234 259 26.0234Z" fill="white"/>
<path d="M263.946 31.2104C262.701 29.7759 260.899 28.9531 259 28.9531C257.101 28.9531 255.298 29.7759 254.054 31.2104C252.81 32.6449 252.251 34.5458 252.519 36.4256L253.284 41.7816C253.592 43.9326 255.462 45.5547 257.635 45.5547H260.365C262.538 45.5547 264.408 43.9326 264.716 41.7816L265.481 36.4257C265.749 34.5458 265.19 32.6449 263.946 31.2104ZM262.581 36.0113L261.816 41.3673C261.713 42.0843 261.09 42.625 260.365 42.625H257.635C256.91 42.625 256.287 42.0844 256.184 41.3674L255.419 36.0113C255.271 34.9728 255.58 33.9226 256.268 33.13C256.955 32.3374 257.951 31.8828 259 31.8828C260.049 31.8828 261.045 32.3374 261.733 33.13C262.42 33.9225 262.729 34.9728 262.581 36.0113Z" fill="white"/>
<path d="M21.875 23.4375H16.75C16.4773 22.9652 16.0858 22.5725 15.6143 22.2984C15.1429 22.0242 14.6079 21.8783 14.0625 21.875C13.2337 21.875 12.4388 22.2042 11.8528 22.7903C11.2667 23.3763 10.9375 24.1712 10.9375 25C10.9375 25.8288 11.2667 26.6237 11.8528 27.2097C12.4388 27.7958 13.2337 28.125 14.0625 28.125C14.6079 28.1217 15.1429 27.9758 15.6143 27.7016C16.0858 27.4275 16.4773 27.0348 16.75 26.5625H21.875C22.2894 26.5625 22.6868 26.3979 22.9799 26.1049C23.2729 25.8118 23.4375 25.4144 23.4375 25C23.4375 24.5856 23.2729 24.1882 22.9799 23.8951C22.6868 23.6021 22.2894 23.4375 21.875 23.4375Z" fill="white"/>
<path d="M25.7813 31.7678C26.9689 31.0821 27.9551 30.0959 28.6407 28.9083C29.3263 27.7207 29.6873 26.3735 29.6873 25.0022C29.6873 23.6309 29.3263 22.2837 28.6407 21.0961C27.9551 19.9085 26.9689 18.9223 25.7813 18.2366C25.4243 18.0498 25.0088 18.0082 24.6217 18.1205C24.2347 18.2328 23.906 18.4902 23.7043 18.8392C23.5026 19.1881 23.4436 19.6014 23.5395 19.9928C23.6353 20.3843 23.8787 20.7235 24.2188 20.9397C24.9329 21.3507 25.5259 21.9426 25.9383 22.6559C26.3507 23.3691 26.5678 24.1784 26.5678 25.0022C26.5678 25.8261 26.3507 26.6354 25.9383 27.3486C25.5259 28.0618 24.9329 28.6537 24.2188 29.0647C24.0348 29.168 23.8735 29.3075 23.7448 29.4748C23.6161 29.6422 23.5227 29.8338 23.4701 30.0383C23.4176 30.2427 23.407 30.4557 23.439 30.6643C23.471 30.8729 23.5449 31.0729 23.6563 31.2522C23.7927 31.4884 23.9884 31.6847 24.2242 31.8218C24.4599 31.9588 24.7274 32.0318 25.0001 32.0335C25.2796 32.0165 25.5494 31.9248 25.7813 31.7678Z" fill="white"/>
<path d="M27.2344 36.2999C29.3733 35.2869 31.1806 33.6874 32.4462 31.6876C33.7118 29.6877 34.3837 27.3697 34.3837 25.0031C34.3837 22.6364 33.7118 20.3184 32.4462 18.3185C31.1806 16.3187 29.3733 14.7193 27.2344 13.7062C26.8594 13.528 26.4289 13.5061 26.0378 13.6453C25.6466 13.7845 25.3267 14.0733 25.1485 14.4484C24.9703 14.8234 24.9484 15.2539 25.0876 15.6451C25.2268 16.0362 25.5156 16.3561 25.8907 16.5343C27.4927 17.295 28.8461 18.4945 29.7937 19.9935C30.7414 21.4926 31.2444 23.2296 31.2444 25.0031C31.2444 26.7765 30.7414 28.5136 29.7937 30.0126C28.8461 31.5116 27.4927 32.7111 25.8907 33.4718C25.564 33.6205 25.2985 33.8772 25.1387 34.1987C24.979 34.5202 24.9349 34.8869 25.0137 35.2371C25.0926 35.5873 25.2896 35.8996 25.5717 36.1217C25.8537 36.3437 26.2036 36.4618 26.5626 36.4562C26.7949 36.4509 27.0236 36.3977 27.2344 36.2999Z" fill="white"/>
<path d="M28.7502 9.25172C28.5606 9.15663 28.3536 9.10115 28.1419 9.08865C27.9301 9.07615 27.718 9.1069 27.5185 9.17903C27.3191 9.25115 27.1364 9.36313 26.9816 9.50816C26.8267 9.65318 26.7031 9.82821 26.6181 10.0226C26.5332 10.2169 26.4887 10.4266 26.4873 10.6387C26.486 10.8508 26.5279 11.061 26.6104 11.2564C26.6929 11.4518 26.8144 11.6283 26.9674 11.7753C27.1204 11.9222 27.3017 12.0365 27.5002 12.1111C30.0093 13.205 32.1445 15.0074 33.6442 17.2971C35.1438 19.5869 35.9426 22.2646 35.9426 25.0017C35.9426 27.7389 35.1438 30.4165 33.6442 32.7063C32.1445 34.9961 30.0093 36.7984 27.5002 37.8923C27.311 37.9739 27.1398 38.092 26.9964 38.24C26.8531 38.388 26.7404 38.5629 26.6649 38.7546C26.5894 38.9462 26.5525 39.151 26.5564 39.357C26.5603 39.563 26.605 39.7662 26.6877 39.9548C26.8097 40.2343 27.0108 40.472 27.2662 40.6386C27.5217 40.8052 27.8203 40.8934 28.1252 40.8923C28.341 40.8891 28.5538 40.8413 28.7502 40.7517C31.8138 39.4133 34.4205 37.2104 36.2511 34.413C38.0817 31.6155 39.0568 28.3449 39.0568 25.0017C39.0568 21.6585 38.0817 18.3879 36.2511 15.5905C34.4205 12.793 31.8138 10.5902 28.7502 9.25172Z" fill="white"/>
<defs>
<clipPath id="clip0_187_1972">
<rect width="50" height="50" fill="white" transform="translate(78)"/>
</clipPath>
</defs>
</svg>
