<svg width="20" height="20" viewBox="0 0 20 20" fill="none" xmlns="http://www.w3.org/2000/svg">
<path d="M17.0711 2.92891C15.1823 1.0402 12.6711 0 10 0C7.32891 0 4.8177 1.0402 2.92891 2.92891C1.0402 4.8177 0 7.32891 0 10C0 12.6711 1.0402 15.1823 2.92891 17.0711C4.8177 18.9598 7.32891 20 10 20C11.8286 20 13.6179 19.5016 15.1743 18.5589C15.5433 18.3353 15.6613 17.8549 15.4377 17.4859C15.2141 17.1168 14.7337 16.9989 14.3647 17.2224C13.0525 18.0173 11.5432 18.4375 10 18.4375C5.34754 18.4375 1.5625 14.6525 1.5625 10C1.5625 5.34754 5.34754 1.5625 10 1.5625C14.6525 1.5625 18.4375 5.34754 18.4375 10C18.4375 11.6636 17.9428 13.283 17.0068 14.683C16.767 15.0416 16.8634 15.5268 17.222 15.7666C17.5808 16.0065 18.0659 15.9101 18.3057 15.5514C19.4141 13.8935 20 11.9738 20 10C20 7.32891 18.9598 4.8177 17.0711 2.92891Z" fill="white"/>
<path d="M9.167 5.91603C8.61672 5.59673 7.9591 5.59564 7.40793 5.91314C6.85469 6.23169 6.52441 6.80368 6.52441 7.44317V12.559C6.52441 13.1985 6.85469 13.7705 7.40793 14.089C7.6827 14.2473 7.98379 14.3264 8.28496 14.3264C8.58797 14.3264 8.89106 14.2462 9.167 14.0861L13.5751 11.5282C14.1251 11.209 14.4535 10.6381 14.4535 10.0011C14.4535 9.36399 14.1251 8.79309 13.5751 8.47391L9.167 5.91603ZM12.7909 10.1767L8.38278 12.7346C8.30219 12.7814 8.23219 12.7606 8.1877 12.735C8.14168 12.7085 8.08692 12.6565 8.08692 12.5589V7.44317C8.08692 7.34564 8.14168 7.2936 8.1877 7.26712C8.21293 7.25259 8.24633 7.23966 8.2852 7.23966C8.31492 7.23966 8.34785 7.24724 8.38278 7.26751L12.7909 9.8254C12.8737 9.87341 12.891 9.94743 12.891 10.0011C12.891 10.0547 12.8737 10.1287 12.7909 10.1767Z" fill="white"/>
</svg>
