<svg width="16" height="16" viewBox="0 0 16 16" fill="none" xmlns="http://www.w3.org/2000/svg">
<g clip-path="url(#clip0_0_41)">
<path d="M15.7821 7.47531L11.0208 2.71397C10.7303 2.42347 10.2591 2.42347 9.96863 2.71397C9.67807 3.00453 9.67807 3.47555 9.96863 3.76611L13.4599 7.25742H0.743959C0.333115 7.25742 0 7.59053 0 8.00138C0 8.41216 0.333115 8.74533 0.743959 8.74533H13.4599L9.96875 12.2366C9.67819 12.5272 9.67819 12.9982 9.96875 13.2888C10.114 13.4339 10.3044 13.5067 10.4948 13.5067C10.6852 13.5067 10.8756 13.4339 11.0209 13.2888L15.7821 8.52744C16.0727 8.23688 16.0727 7.76587 15.7821 7.47531Z" fill="#7737FF"/>
</g>
<defs>
<clipPath id="clip0_0_41">
<rect width="16" height="16" fill="white"/>
</clipPath>
</defs>
</svg>
