<svg width="1031" height="201" viewBox="0 0 1031 201" fill="none" xmlns="http://www.w3.org/2000/svg">
<g clip-path="url(#clip0_187_1669)">
<path d="M52.4765 29.19C52.3529 28.7285 51.8784 28.4541 51.4164 28.578C50.9543 28.7018 50.6811 29.1764 50.8048 29.638C52.2947 35.1986 49.7256 40.9343 44.6726 43.5346L43.9881 40.9798C48.0107 38.7054 50.1586 33.9156 48.9085 29.25L45.5486 16.7109C44.0665 11.1794 38.361 7.88497 32.8295 9.36712C27.2976 10.8494 24.0037 16.5553 25.4859 22.0867L28.8457 34.6258C30.0958 39.2914 34.3514 42.3654 38.9723 42.3238L39.6568 44.8786C33.9798 45.1534 28.8882 41.4714 27.3978 35.9094C27.2741 35.4478 26.7998 35.1739 26.3378 35.2977C25.8757 35.4216 25.6024 35.8957 25.726 36.3573C27.4621 42.8363 33.4748 47.0821 40.1135 46.5829L40.6253 48.4929L37.2812 49.3889C34.9771 50.0063 33.604 52.3839 34.2215 54.6885C34.3452 55.1501 34.8195 55.4239 35.2815 55.3001L53.6725 50.3723C54.1346 50.2485 54.408 49.7743 54.2843 49.3127C53.6667 47.0081 51.2893 45.6355 48.9846 46.253L45.6411 47.1489L45.1292 45.2384C51.1276 42.3515 54.2121 35.6672 52.4765 29.19V29.19ZM30.7836 35.0027L34.9217 33.8939C35.3837 33.7701 35.6574 33.2953 35.5338 32.8337C35.4101 32.3721 34.9358 32.0983 34.4737 32.2221L30.294 33.342L29.622 30.8341L33.8017 29.7142C34.2638 29.5904 34.5375 29.1156 34.4138 28.654C34.2901 28.1924 33.8157 27.9181 33.3536 28.0419L29.174 29.1619L28.5021 26.6544L32.6818 25.5345C33.1439 25.4107 33.4176 24.9359 33.2939 24.4743C33.1702 24.0127 32.6958 23.7384 32.2337 23.8622L28.054 24.9822L27.382 22.4743L31.5617 21.3543C32.0238 21.2305 32.2976 20.7562 32.1739 20.2946C32.0502 19.8331 31.5758 19.5587 31.1138 19.6826L26.9757 20.7913C26.2663 16.4601 28.9506 12.1988 33.2776 11.0394C37.6046 9.87995 42.0599 12.2282 43.6112 16.3339L39.4731 17.4427C39.0111 17.5665 38.7374 18.0412 38.861 18.5028C38.9847 18.9644 39.459 19.2383 39.9211 19.1144L44.1008 17.9945L44.7728 20.5024L40.5931 21.6224C40.131 21.7462 39.8573 22.2209 39.981 22.6825C40.1047 23.1441 40.5791 23.4184 41.0412 23.2946L45.2208 22.1747L45.8927 24.6821L41.713 25.802C41.2509 25.9258 40.9772 26.4006 41.1009 26.8622C41.2246 27.3238 41.699 27.5981 42.1611 27.4743L46.3408 26.3543L47.0128 28.8623L42.8331 29.9822C42.371 30.106 42.0972 30.5803 42.2209 31.0419C42.3446 31.5035 42.819 31.7778 43.281 31.654L47.4191 30.5452C48.0445 34.3621 46.0326 38.1229 42.5846 39.7563L42.5832 39.7567C42.1187 39.9765 41.6305 40.1596 41.1172 40.2972C36.7902 41.4566 32.3349 39.1083 30.7836 35.0027ZM49.4326 47.9248C50.5227 47.6327 51.6394 48.0825 52.2456 48.9633L35.8124 53.3666C35.8969 52.3007 36.6395 51.3526 37.7292 51.0607L41.9089 49.9407C42.3709 49.8169 42.6448 49.3426 42.5211 48.881L40.719 42.1557C41.0007 42.1048 41.2831 42.045 41.5648 41.9695C41.8465 41.8941 42.121 41.8046 42.3908 41.7077L44.1929 48.4331C44.3165 48.8947 44.7908 49.1685 45.2529 49.0447L49.4326 47.9248Z" fill="#7737FF"/>
<path d="M40.8569 7.32455C41.6328 7.34429 42.3574 7.59769 42.9537 8.05722C43.5559 8.52133 43.9883 9.16476 44.2024 9.91793C44.3321 10.3733 44.8032 10.6393 45.2591 10.5171L45.272 10.5136C45.7312 10.3829 45.9981 9.90382 45.8672 9.44415C45.5507 8.33185 44.9087 7.37855 44.0112 6.68649C43.1216 6.00102 42.0453 5.62344 40.901 5.59477C40.4241 5.58309 40.027 5.96071 40.0139 6.43793C40.0019 6.91538 40.3795 7.31252 40.8569 7.32455Z" fill="#7737FF"/>
<path d="M46.1315 3.93035C44.5419 2.7065 42.5607 2.05921 40.5532 2.10752C40.0764 2.12095 39.6977 2.51567 39.7095 2.99393C39.7211 3.4717 40.1182 3.84977 40.5955 3.83826C42.2315 3.79824 43.78 4.30409 45.0747 5.30143C46.2892 6.23718 47.149 7.5192 47.5624 9.00849C47.6893 9.46666 48.1613 9.73596 48.6201 9.61305L48.6272 9.61113C49.0878 9.48362 49.3579 9.00675 49.2302 8.54571C48.7163 6.69269 47.6447 5.09675 46.1315 3.93035Z" fill="#7737FF"/>
<path d="M14.7521 9.99153L12.9491 13.1165C12.7099 13.5302 12.8517 14.0597 13.2658 14.2984C13.4727 14.4178 13.7084 14.4423 13.9222 14.385C14.136 14.3278 14.3284 14.1885 14.4478 13.9817L16.2512 10.8567C16.4901 10.443 16.3482 9.91351 15.9345 9.6747C15.5204 9.43601 14.9914 9.57777 14.7521 9.99153Z" fill="#7737FF"/>
<path d="M11.1444 16.242L9.34052 19.3672C9.10122 19.7809 9.24298 20.31 9.65722 20.5491C9.86404 20.6686 10.0998 20.6931 10.3136 20.6358C10.5274 20.5785 10.7198 20.4393 10.8392 20.2324L12.6431 17.1073C12.8824 16.6935 12.7406 16.1645 12.3264 15.9253C11.9128 15.6865 11.3837 15.8282 11.1444 16.242Z" fill="#7737FF"/>
<path d="M8.54122 11.6562C8.12759 11.4174 7.59807 11.5593 7.35926 11.9729C7.12009 12.3871 7.26185 12.9162 7.67596 13.1549L10.8008 14.9594C11.0081 15.0787 11.2438 15.1032 11.4576 15.0459C11.6715 14.9886 11.8634 14.8495 11.9828 14.6427C12.2219 14.2284 12.0802 13.6994 11.6661 13.4607L8.54122 11.6562Z" fill="#7737FF"/>
<path d="M14.7914 15.2643C14.3773 15.0256 13.8483 15.1674 13.6095 15.581C13.3702 15.9948 13.5121 16.5243 13.9262 16.763L17.0501 18.5678C17.2574 18.6871 17.4931 18.7116 17.7069 18.6543C17.9207 18.597 18.1126 18.4579 18.2325 18.2509C18.4713 17.8373 18.3294 17.3078 17.9158 17.069L14.7914 15.2643Z" fill="#7737FF"/>
<path d="M11.455 36.5965C9.61056 37.0908 8.51292 38.9926 9.00702 40.8366C9.50098 42.6801 11.4025 43.7784 13.247 43.2842C15.0909 42.7901 16.1886 40.8882 15.6946 39.0447C15.2005 37.2007 13.299 36.1025 11.455 36.5965ZM12.799 41.6124C11.8773 41.8594 10.9258 41.3104 10.6788 40.3887C10.4317 39.4664 10.9813 38.5158 11.9031 38.2688C12.8244 38.022 13.7757 38.5704 14.0228 39.4926C14.2698 40.4144 13.7203 41.3655 12.799 41.6124Z" fill="#7737FF"/>
<path d="M18.971 27.8636C19.1566 28.5563 18.7455 29.2683 18.0529 29.4539C17.3602 29.6395 16.6487 29.2282 16.4631 28.5356C16.2775 27.843 16.6882 27.1316 17.3809 26.946C18.0735 26.7604 18.7854 27.171 18.971 27.8636Z" fill="#7737FF"/>
</g>
<g clip-path="url(#clip1_187_1669)">
<path d="M986.686 148.274L988.196 148.678L987.792 150.189L986.281 149.784L986.686 148.274Z" fill="#7737FF"/>
<path d="M989.707 149.083L991.217 149.488L990.812 150.998L989.302 150.593L989.707 149.083Z" fill="#7737FF"/>
<path d="M992.728 149.892L994.238 150.297L993.833 151.807L992.323 151.403L992.728 149.892Z" fill="#7737FF"/>
<path d="M994.48 158.457L985.418 156.029C985.217 155.975 985.004 156.003 984.824 156.107C984.645 156.21 984.514 156.381 984.46 156.581L982.437 164.133C982.383 164.334 982.411 164.547 982.515 164.727C982.618 164.906 982.789 165.037 982.989 165.091L992.052 167.519C992.252 167.573 992.465 167.545 992.645 167.441C992.825 167.337 992.956 167.166 993.009 166.966L995.033 159.414C995.086 159.214 995.058 159.001 994.955 158.821C994.851 158.641 994.68 158.51 994.48 158.457ZM991.701 165.806L984.149 163.783L985.768 157.741L993.32 159.765L991.701 165.806Z" fill="#7737FF"/>
<path d="M998.256 159.47L1001.28 160.279L1000.87 161.789L997.851 160.98L998.256 159.47Z" fill="#7737FF"/>
<path d="M1002.79 160.681L1014.87 163.919L1014.47 165.429L1002.38 162.192L1002.79 160.681Z" fill="#7737FF"/>
<path d="M997.446 162.487L1014.06 166.939L1013.66 168.45L997.042 163.998L997.446 162.487Z" fill="#7737FF"/>
<path d="M996.637 165.509L1004.19 167.533L1003.78 169.043L996.232 167.02L996.637 165.509Z" fill="#7737FF"/>
<path d="M1005.7 167.937L1010.23 169.151L1009.83 170.661L1005.29 169.447L1005.7 167.937Z" fill="#7737FF"/>
<path d="M981.425 167.909L991.997 170.742L991.593 172.253L981.02 169.42L981.425 167.909Z" fill="#7737FF"/>
<path d="M980.615 170.931L991.188 173.764L990.783 175.274L980.21 172.442L980.615 170.931Z" fill="#7737FF"/>
<path d="M979.806 173.949L990.379 176.782L989.974 178.292L979.401 175.459L979.806 173.949Z" fill="#7737FF"/>
<path d="M978.997 176.971L989.569 179.804L989.165 181.314L978.592 178.481L978.997 176.971Z" fill="#7737FF"/>
<path d="M1023.36 165.46C1022.88 164.968 1022.27 164.615 1021.61 164.44C1020.94 164.265 1020.24 164.274 1019.58 164.465L1021.63 156.828C1021.79 156.227 1021.7 155.587 1021.39 155.048C1021.08 154.51 1020.57 154.116 1019.97 153.955L985.23 144.647C984.629 144.486 983.988 144.57 983.45 144.882C982.911 145.193 982.518 145.705 982.357 146.306L973.049 181.044C972.888 181.645 972.972 182.285 973.283 182.824C973.594 183.363 974.106 183.756 974.707 183.917L1009.45 193.225C1010.05 193.386 1010.69 193.302 1011.23 192.991C1011.76 192.68 1012.16 192.168 1012.32 191.567L1015.81 178.54L1023.36 170.989C1024.09 170.255 1024.5 169.261 1024.5 168.225C1024.5 167.188 1024.09 166.194 1023.36 165.46V165.46ZM1002.29 183.214L994.1 181.019L996.124 173.467L1006.93 176.363L1004.01 179.281C1003.9 179.39 1003.83 179.529 1003.8 179.681L1003.29 182.216L1002.29 183.214ZM1002.91 184.81L1004.01 183.704L1005.12 184.81L1004.01 185.915C1003.86 186.06 1003.67 186.141 1003.46 186.141C1003.25 186.14 1003.06 186.058 1002.91 185.912C1002.76 185.766 1002.68 185.568 1002.68 185.361C1002.68 185.155 1002.76 184.957 1002.91 184.81ZM1006.48 183.961L1004.86 182.341L1005.23 180.497L1008.32 183.592L1006.48 183.961ZM1009.54 182.595L1008.43 181.49L1016.73 173.198L1015.62 172.092L1007.33 180.384L1006.22 179.279L1015.62 169.881L1018.94 173.198L1009.54 182.595ZM1016.72 168.774L1017.28 168.222L1020.6 171.54L1020.04 172.093L1016.72 168.774ZM984.825 146.158L1019.56 155.466C1019.76 155.519 1019.93 155.65 1020.04 155.83C1020.14 156.01 1020.17 156.223 1020.12 156.423L1019.1 160.223L982.849 150.511L983.867 146.71C983.921 146.51 984.052 146.339 984.232 146.236C984.411 146.132 984.625 146.104 984.825 146.158V146.158ZM1010.81 191.162C1010.75 191.362 1010.62 191.533 1010.44 191.637C1010.26 191.74 1010.05 191.768 1009.85 191.715L975.112 182.407C974.912 182.353 974.741 182.222 974.637 182.042C974.534 181.863 974.505 181.649 974.559 181.449L982.444 152.021L1018.69 161.734L1017.64 165.649L1008.21 175.086L995.773 171.755C995.573 171.701 995.359 171.729 995.18 171.833C995 171.936 994.869 172.107 994.816 172.307L992.387 181.37C992.334 181.57 992.362 181.783 992.465 181.963C992.569 182.143 992.74 182.274 992.94 182.327L1001.26 184.557C1001.08 185.058 1001.08 185.605 1001.25 186.11C1001.42 186.614 1001.76 187.045 1002.2 187.331C1002.65 187.618 1003.19 187.744 1003.72 187.687C1004.25 187.631 1004.74 187.396 1005.12 187.021L1006.61 185.53L1009.14 185.023C1009.29 184.993 1009.43 184.917 1009.54 184.807L1013.6 180.752L1010.81 191.162ZM1022.26 169.883L1021.7 170.436L1018.38 167.118L1018.94 166.566C1019.38 166.125 1019.97 165.878 1020.6 165.878C1021.22 165.877 1021.82 166.125 1022.26 166.565C1022.7 167.004 1022.94 167.601 1022.94 168.224C1022.94 168.846 1022.7 169.443 1022.26 169.883V169.883Z" fill="#7737FF"/>
</g>
<defs>
<clipPath id="clip0_187_1669">
<rect width="50" height="50" fill="white" transform="translate(0 12.951) scale(1.00074) rotate(-15)"/>
</clipPath>
<clipPath id="clip1_187_1669">
<rect width="50" height="50" fill="white" transform="translate(982.668 139.103) scale(1.00074) rotate(15)"/>
</clipPath>
</defs>
</svg>
