<svg width="178" height="178" viewBox="0 0 178 178" fill="none" xmlns="http://www.w3.org/2000/svg">
<g filter="url(#filter0_d_187_1642)">
<circle cx="88.9999" cy="88.9994" r="38.7146" transform="rotate(-30 88.9999 88.9994)" fill="#FB5392"/>
</g>
<g clip-path="url(#clip0_187_1642)">
<path d="M91.7684 77.8556L83.1173 82.8503C82.3549 83.2905 82.0936 84.2653 82.5339 85.0278C82.9741 85.7903 83.9489 86.0516 84.7114 85.6113L93.3625 80.6166C94.1254 80.1761 94.3862 79.2016 93.9459 78.4391C93.5056 77.6766 92.5309 77.4154 91.7684 77.8556Z" fill="white"/>
<path d="M98.9339 82.6165L86.9698 89.524C86.2073 89.9642 85.946 90.939 86.3863 91.7016C86.8265 92.464 87.8013 92.7253 88.5638 92.285L100.528 85.3775C101.29 84.9373 101.552 83.9625 101.111 83.2C100.671 82.4374 99.6964 82.1763 98.9339 82.6165Z" fill="white"/>
<path d="M96.3453 63.6808L71.9107 77.7881C71.1483 78.2283 70.887 79.2031 71.3273 79.9656L78.8458 92.9882L76.407 94.3962C73.5398 96.0516 72.5542 99.7313 74.2093 102.598L78.6461 110.283C80.3015 113.15 83.9807 114.136 86.848 112.48C87.0827 112.345 87.3047 112.196 87.5131 112.035L110.29 98.8851C113.689 96.9223 114.859 92.5591 112.896 89.159L98.5228 64.2643C98.0825 63.5017 97.1078 63.2406 96.3453 63.6808ZM86.2848 105.873C86.9678 107.056 86.6918 108.534 85.6995 109.401L85.2275 109.673L85.254 109.719C83.9089 110.496 82.1834 110.033 81.4071 108.689L76.9704 101.004C76.1941 99.6595 76.6566 97.9334 78.0011 97.1571L80.44 95.749L86.2848 105.873L86.2848 105.873ZM110.135 90.753C111.2 92.5987 110.542 95.0582 108.696 96.1241L89.8432 107.009C89.8028 106.077 89.5435 105.141 89.0457 104.279L74.8853 79.752L96.5589 67.2388L110.135 90.753Z" fill="white"/>
<path d="M99.2346 90.7867L90.5835 95.7814C89.8211 96.2216 89.5598 97.1964 90.0001 97.9589C90.4403 98.7214 91.4151 98.9826 92.1776 98.5424L100.829 93.5477C101.592 93.1072 101.852 92.1327 101.412 91.3701C100.972 90.6076 99.9971 90.3465 99.2346 90.7867Z" fill="white"/>
</g>
<defs>
<filter id="filter0_d_187_1642" x="0" y="0" width="178" height="177.999" filterUnits="userSpaceOnUse" color-interpolation-filters="sRGB">
<feFlood flood-opacity="0" result="BackgroundImageFix"/>
<feColorMatrix in="SourceAlpha" type="matrix" values="0 0 0 0 0 0 0 0 0 0 0 0 0 0 0 0 0 0 127 0" result="hardAlpha"/>
<feOffset/>
<feGaussianBlur stdDeviation="25"/>
<feColorMatrix type="matrix" values="0 0 0 0 0.984314 0 0 0 0 0.32549 0 0 0 0 0.572549 0 0 0 0.5 0"/>
<feBlend mode="normal" in2="BackgroundImageFix" result="effect1_dropShadow_187_1642"/>
<feBlend mode="normal" in="SourceGraphic" in2="effect1_dropShadow_187_1642" result="shape"/>
</filter>
<clipPath id="clip0_187_1642">
<rect width="40" height="40" fill="white" transform="translate(62.214 81.8208) scale(1.00557) rotate(-30)"/>
</clipPath>
</defs>
</svg>
